<svg xmlns="http://www.w3.org/2000/svg" id="car" viewBox="0 0 80 80" class="style0"><style>.style0{enable-background: new 0 0 80 80;}.st0{fill:#8d8b8e;}.st1{fill:#FFFFFF;}</style><circle class="st0" cx="40.2" cy="40.2" r="40"/><path class="st1" d="M61 35.5h-3c0-.2 0-.5-.1-.7l-3-12c-.3-1.3-1.5-2.3-2.9-2.3H28c-1.4 0-2.6.9-2.9 2.3l-3 12c-.1.2-.1.5-.1.7h-3c-1.7 0-3 1.3-3 3v12c0 1.7 1.3 3 3 3h3v3c0 1.7 1.3 3 3 3s3-1.3 3-3v-3h24v3c0 1.7 1.3 3 3 3s3-1.3 3-3v-3h3c1.7 0 3-1.3 3-3v-12c0-1.7-1.3-3-3-3zm-36 12c-1.7 0-3-1.3-3-3s1.3-3 3-3 3 1.3 3 3-1.3 3-3 3zm3.1-12l2.3-9h19.3l2.3 9H28.1zm26.9 12c-1.7 0-3-1.3-3-3s1.3-3 3-3 3 1.3 3 3-1.3 3-3 3z"/></svg>